<svg width="170" height="20" viewBox="0 0 170 20" fill="none" xmlns="http://www.w3.org/2000/svg">
<path fill-rule="evenodd" clip-rule="evenodd" d="M17.3333 3.83333L2.66662 3.83336C1.8382 3.83336 1.16663 4.50493 1.16663 5.33336V13.3334C1.16663 14.1618 1.8382 14.8334 2.66662 14.8334H10C10.1326 14.8334 10.2598 14.886 10.3536 14.9798L13.5 18.1262V15.3334C13.5 15.0572 13.7238 14.8334 14 14.8334H17.3333C18.1617 14.8334 18.8333 14.1618 18.8333 13.3334V5.33333C18.8333 4.5049 18.1617 3.83333 17.3333 3.83333ZM2.66662 2.83336L17.3333 2.83333C18.714 2.83333 19.8333 3.95262 19.8333 5.33333V13.3334C19.8333 14.7141 18.714 15.8334 17.3333 15.8334H14.5V19.3333C14.5 19.5356 14.3781 19.7179 14.1913 19.7953C14.0045 19.8727 13.7894 19.8299 13.6464 19.6869L9.79289 15.8334H2.66662C1.28591 15.8334 0.166626 14.7141 0.166626 13.3334V5.33336C0.166626 3.95265 1.28591 2.83336 2.66662 2.83336Z" fill="#C5C7CA"/>
<path fill-rule="evenodd" clip-rule="evenodd" d="M32.7656 5.33324C32.7656 3.91512 33.9152 2.7655 35.3334 2.7655C36.7515 2.7655 37.9011 3.91512 37.9011 5.33324C37.9011 6.75139 36.7515 7.90099 35.3334 7.90099C33.9152 7.90099 32.7656 6.75139 32.7656 5.33324ZM35.3334 1.7655C33.3629 1.7655 31.7656 3.36284 31.7656 5.33324C31.7656 7.30364 33.3629 8.90099 35.3334 8.90099C37.3038 8.90099 38.9011 7.30364 38.9011 5.33324C38.9011 3.36284 37.3038 1.7655 35.3334 1.7655ZM37.967 14.6668L33.2333 17.2854V12.0481L37.967 14.6668ZM33.1608 10.8652C32.7443 10.6348 32.2333 10.9361 32.2333 11.4121V17.9214C32.2333 18.3975 32.7443 18.6988 33.1608 18.4683L39.0443 15.2137C39.4742 14.9758 39.4742 14.3577 39.0443 14.1199L33.1608 10.8652ZM41.1667 11.7917C41.1667 11.4465 41.4465 11.1667 41.7917 11.1667H47.5417C47.8869 11.1667 48.1667 11.4465 48.1667 11.7917V17.5417C48.1667 17.8868 47.8869 18.1667 47.5417 18.1667H41.7917C41.4465 18.1667 41.1667 17.8868 41.1667 17.5417V11.7917ZM42.1667 12.1667V17.1667H47.1667V12.1667H42.1667ZM47.8536 2.85341C48.0488 2.65815 48.0488 2.34157 47.8536 2.14631C47.6583 1.95104 47.3417 1.95104 47.1465 2.14631L44.6667 4.6261L42.1869 2.14634C41.9916 1.95108 41.6751 1.95108 41.4798 2.14634C41.2845 2.3416 41.2845 2.65818 41.4798 2.85345L43.9596 5.33319L41.4798 7.81299C41.2845 8.00824 41.2845 8.32479 41.4798 8.52009C41.6751 8.71534 41.9916 8.71534 42.1869 8.52009L44.6667 6.04029L47.1465 8.52009C47.3417 8.71539 47.6583 8.71539 47.8536 8.52009C48.0488 8.32484 48.0488 8.00829 47.8536 7.81299L45.3738 5.33319L47.8536 2.85341Z" fill="#C5C7CA"/>
<g clip-path="url(#clip0_1_13)">
<path d="M70 20C75.5228 20 80 15.5228 80 10C80 4.47715 75.5228 0 70 0C64.4772 0 60 4.47715 60 10C60 15.5228 64.4772 20 70 20Z" fill="#131319"/>
<path fill-rule="evenodd" clip-rule="evenodd" d="M72.8596 7.69287C73.0121 7.54031 73.0121 7.293 72.8596 7.14044C72.7071 6.98794 72.4597 6.98794 72.3072 7.14044L70.0001 9.44756L67.6929 7.14044C67.5404 6.98794 67.2931 6.98794 67.1405 7.14044C66.9879 7.293 66.9879 7.54031 67.1405 7.69287L69.4476 10L67.1405 12.3071C66.9879 12.4597 66.9879 12.707 67.1405 12.8596C67.2931 13.0121 67.5404 13.0121 67.6929 12.8596L70.0001 10.5524L72.3072 12.8596C72.4597 13.0121 72.7071 13.0121 72.8596 12.8596C73.0121 12.707 73.0121 12.4597 72.8596 12.3071L70.5525 10L72.8596 7.69287Z" fill="white"/>
</g>
<path fill-rule="evenodd" clip-rule="evenodd" d="M92.4167 10C92.4167 9.19329 92.9351 7.70472 94.1861 6.40565C95.4072 5.13755 97.2989 4.08334 100 4.08334C102.701 4.08334 104.593 5.13755 105.814 6.40565C107.065 7.70472 107.583 9.19329 107.583 10C107.583 10.8067 107.065 12.2953 105.814 13.5944C104.593 14.8624 102.701 15.9167 100 15.9167C97.2989 15.9167 95.4072 14.8624 94.1861 13.5944C92.9351 12.2953 92.4167 10.8067 92.4167 10ZM100 2.58334C96.8678 2.58334 94.5928 3.82078 93.1056 5.36519C91.6482 6.87862 90.9167 8.72338 90.9167 10C90.9167 11.2766 91.6482 13.1214 93.1056 14.6348C94.5928 16.1792 96.8678 17.4167 100 17.4167C103.132 17.4167 105.407 16.1792 106.894 14.6348C108.352 13.1214 109.083 11.2766 109.083 10C109.083 8.72338 108.352 6.87862 106.894 5.36519C105.407 3.82078 103.132 2.58334 100 2.58334ZM98.2499 10C98.2499 9.0335 99.0334 8.25 99.9999 8.25C100.966 8.25 101.75 9.0335 101.75 10C101.75 10.9665 100.966 11.75 99.9999 11.75C99.0334 11.75 98.2499 10.9665 98.2499 10ZM99.9999 6.75C98.205 6.75 96.7499 8.20508 96.7499 10C96.7499 11.7949 98.205 13.25 99.9999 13.25C101.795 13.25 103.25 11.7949 103.25 10C103.25 8.20508 101.795 6.75 99.9999 6.75Z" fill="#7F8084"/>
<path fill-rule="evenodd" clip-rule="evenodd" d="M122.417 10C122.417 9.19329 122.935 7.70472 124.186 6.40565C125.407 5.13755 127.299 4.08334 130 4.08334C132.701 4.08334 134.593 5.13755 135.814 6.40565C137.065 7.70472 137.583 9.19329 137.583 10C137.583 10.8067 137.065 12.2953 135.814 13.5944C134.593 14.8624 132.701 15.9167 130 15.9167C127.299 15.9167 125.407 14.8624 124.186 13.5944C122.935 12.2953 122.417 10.8067 122.417 10ZM130 2.58334C126.868 2.58334 124.593 3.82078 123.106 5.36519C121.648 6.87862 120.917 8.72338 120.917 10C120.917 11.2766 121.648 13.1214 123.106 14.6348C124.593 16.1792 126.868 17.4167 130 17.4167C133.132 17.4167 135.407 16.1792 136.894 14.6348C138.352 13.1214 139.083 11.2766 139.083 10C139.083 8.72338 138.352 6.87862 136.894 5.36519C135.407 3.82078 133.132 2.58334 130 2.58334ZM128.25 10C128.25 9.0335 129.033 8.25 130 8.25C130.966 8.25 131.75 9.0335 131.75 10C131.75 10.9665 130.966 11.75 130 11.75C129.033 11.75 128.25 10.9665 128.25 10ZM130 6.75C128.205 6.75 126.75 8.20508 126.75 10C126.75 11.7949 128.205 13.25 130 13.25C131.795 13.25 133.25 11.7949 133.25 10C133.25 8.20508 131.795 6.75 130 6.75Z" fill="#7F8084"/>
<path d="M122 15L138.739 4.57336" stroke="#7F8084" stroke-width="2" stroke-linecap="round"/>
<path fill-rule="evenodd" clip-rule="evenodd" d="M154.833 10C154.833 10.8284 154.162 11.5 153.333 11.5C152.505 11.5 151.833 10.8284 151.833 10C151.833 9.17157 152.505 8.5 153.333 8.5C154.162 8.5 154.833 9.17157 154.833 10ZM161.5 10C161.5 10.8284 160.828 11.5 160 11.5C159.172 11.5 158.5 10.8284 158.5 10C158.5 9.17157 159.172 8.5 160 8.5C160.828 8.5 161.5 9.17157 161.5 10ZM166.667 11.5C167.495 11.5 168.167 10.8284 168.167 10C168.167 9.17157 167.495 8.5 166.667 8.5C165.838 8.5 165.167 9.17157 165.167 10C165.167 10.8284 165.838 11.5 166.667 11.5Z" fill="#C5C7CA"/>
<defs>
<clipPath id="clip0_1_13">
<rect width="20" height="20" fill="white" transform="translate(60)"/>
</clipPath>
</defs>
</svg>
